_________________________  Visit us at _________________________
  
http://p2pdl.com  ____________________________  http://p2pdl.com


Hachiko A Dogs Story 2009  BRRip 720p x264 AAC - PRiSTiNE


Genre: Drama | Family 
Plot: A drama based on the true story of a college professor's bond with the abandoned dog he takes
into his home.
Director: Lasse Hallström
Stars: Richard Gere, Joan Allen, Cary-Hiroyuki Tagawa.
Rated: N/a


Info: 
http://www.imdb.com/title/tt1028532/

Trailer:


Format                         : MPEG-4
File size                      : 591 MiB
Duration                       : 1h 33mn
Overall bit rate               : 885 Kbps
Video Format                   : AVC
Video Bit rate                 : 799 Kbps
Maximum bit rate               : 7 648 Kbps
Width                          : 1 280 pixels
Height                         : 690 pixels
Display aspect ratio           : 1.85:1
Frame rate mode                : Constant
Stream size                    : 532 MiB (90%)
Writing library                : x264 core 129 r2245
Audio Format                   : AAC
Audio Bit rate                 : 83.8 Kbps
Channel(s)                     : 2 channels
Channel positions              : Front: L R
Sampling rate                  : 48.0 KHz
Stream size                    : 55.9 MiB (9%)
Language                       : English
Subtitle                       : Yes(English)
Source                         : 720p.BluRay.DTS.x264-HiDt(Thanks)

Screenshots:
 
http://cdn.piczend.com/images/4dbp9nmO/1363403257_tinybayhachikoadogsstor.jpg


----------------------------------------------------------------------------------------------------


Encoded using revolutionary 10bit encoding, which enables us to provide you more crispier 
and sharper images at small sizes, just make sure you follow our instructions without a fault.
Recommend to you to use latest version of VLC player. Install K-Lite Codec Pack or shark007 codecs
in case of any kind of problem in playback (For non-VLC Media Player users). Alternatively, install
Core AVC codecs, the fastest decoder that there is coupled with Community Center Codec Pack and play
on Windows Media Player Classic.

Encoder Notes: Encoder Notes: Looking For Early Access To Anything You Can Provide DVDScr, R5, DVDR, BluRay, Direct
Audio, Music Releases and Seedboxes. We require dedicated servers, so as to do more and fast releases of movies.
If You Got anything to offer contact us at "prg@hush.com".